{
    "asset" : {
        "generator" : "Khronos glTF Blender I/O v1.3.48",
        "version" : "2.0"
    },
    "scene" : 0,
    "scenes" : [
        {
            "name" : "Scene",
            "nodes" : [
                0
            ]
        }
    ],
    "nodes" : [
        {
            "mesh" : 0,
            "name" : "Link 2"
        }
    ],
    "meshes" : [
        {
            "name" : "Link 2",
            "primitives" : [
                {
                    "attributes" : {
                        "POSITION" : 0,
                        "NORMAL" : 1
                    },
                    "indices" : 2
                }
            ]
        }
    ],
    "accessors" : [
        {
            "bufferView" : 0,
            "componentType" : 5126,
            "count" : 20504,
            "max" : [
                53.47209930419922,
                47.5,
                374
            ],
            "min" : [
                -50,
                -58,
                -50
            ],
            "type" : "VEC3"
        },
        {
            "bufferView" : 1,
            "componentType" : 5126,
            "count" : 20504,
            "type" : "VEC3"
        },
        {
            "bufferView" : 2,
            "componentType" : 5123,
            "count" : 22326,
            "type" : "SCALAR"
        }
    ],
    "bufferViews" : [
        {
            "buffer" : 0,
            "byteLength" : 246048,
            "byteOffset" : 0
        },
        {
            "buffer" : 0,
            "byteLength" : 246048,
            "byteOffset" : 246048
        },
        {
            "buffer" : 0,
            "byteLength" : 44652,
            "byteOffset" : 492096
        }
    ],
    "buffers" : [
        {
            "byteLength" : 536748,
            "uri" : "link_2.bin"
        }
    ]
}
