{
    "asset" : {
        "generator" : "Khronos glTF Blender I/O v1.3.48",
        "version" : "2.0"
    },
    "scene" : 0,
    "scenes" : [
        {
            "name" : "Scene",
            "nodes" : [
                0
            ]
        }
    ],
    "nodes" : [
        {
            "mesh" : 0,
            "name" : "Link 1"
        }
    ],
    "meshes" : [
        {
            "name" : "Link 1",
            "primitives" : [
                {
                    "attributes" : {
                        "POSITION" : 0,
                        "NORMAL" : 1
                    },
                    "indices" : 2
                }
            ]
        }
    ],
    "accessors" : [
        {
            "bufferView" : 0,
            "componentType" : 5126,
            "count" : 61473,
            "max" : [
                252.99740600585938,
                110.5,
                216.9996337890625
            ],
            "min" : [
                -149.96392822265625,
                -110.5,
                -2.020667230003166e-14
            ],
            "type" : "VEC3"
        },
        {
            "bufferView" : 1,
            "componentType" : 5126,
            "count" : 61473,
            "type" : "VEC3"
        },
        {
            "bufferView" : 2,
            "componentType" : 5123,
            "count" : 63246,
            "type" : "SCALAR"
        }
    ],
    "bufferViews" : [
        {
            "buffer" : 0,
            "byteLength" : 737676,
            "byteOffset" : 0
        },
        {
            "buffer" : 0,
            "byteLength" : 737676,
            "byteOffset" : 737676
        },
        {
            "buffer" : 0,
            "byteLength" : 126492,
            "byteOffset" : 1475352
        }
    ],
    "buffers" : [
        {
            "byteLength" : 1601844,
            "uri" : "link_1.bin"
        }
    ]
}
