{
    "asset" : {
        "generator" : "Khronos glTF Blender I/O v1.3.48",
        "version" : "2.0"
    },
    "scene" : 0,
    "scenes" : [
        {
            "name" : "Scene",
            "nodes" : [
                0
            ]
        }
    ],
    "nodes" : [
        {
            "mesh" : 0,
            "name" : "Link 5"
        }
    ],
    "meshes" : [
        {
            "name" : "Link 5",
            "primitives" : [
                {
                    "attributes" : {
                        "POSITION" : 0,
                        "NORMAL" : 1
                    },
                    "indices" : 2
                }
            ]
        }
    ],
    "accessors" : [
        {
            "bufferView" : 0,
            "componentType" : 5126,
            "count" : 5537,
            "max" : [
                68,
                37.951229095458984,
                38
            ],
            "min" : [
                -38,
                -38,
                -38
            ],
            "type" : "VEC3"
        },
        {
            "bufferView" : 1,
            "componentType" : 5126,
            "count" : 5537,
            "type" : "VEC3"
        },
        {
            "bufferView" : 2,
            "componentType" : 5123,
            "count" : 5784,
            "type" : "SCALAR"
        }
    ],
    "bufferViews" : [
        {
            "buffer" : 0,
            "byteLength" : 66444,
            "byteOffset" : 0
        },
        {
            "buffer" : 0,
            "byteLength" : 66444,
            "byteOffset" : 66444
        },
        {
            "buffer" : 0,
            "byteLength" : 11568,
            "byteOffset" : 132888
        }
    ],
    "buffers" : [
        {
            "byteLength" : 144456,
            "uri" : "link_5.bin"
        }
    ]
}
